<svg xmlns="http://www.w3.org/2000/svg" viewBox="0 0 64 80" x="0px" y="0px"><title>a</title><g data-name="05 Shelter"><path d="M60,40.35V20a2,2,0,0,0-.891-1.664l-12-8a2,2,0,0,0-2.218,0l-12,8A2,2,0,0,0,32,20v6H16a2,2,0,0,0-2-2H2a2,2,0,0,0-2,2V48a2,2,0,0,0,2,2H14a2,2,0,0,0,2-2,21.2,21.2,0,0,1,6.889,1.415l6.646,2.847A25.191,25.191,0,0,0,38,54h2c2.262,0,5.937-.2,8.2-.454l10.049-1.117A6.625,6.625,0,0,0,64,46,6.006,6.006,0,0,0,60,40.35ZM46,14.4,54.394,20H37.6ZM36,24H56V40H52V34a2,2,0,0,0-2-2H42a2,2,0,0,0-2,2v6a5.423,5.423,0,0,1-.959-.1c-.131-.024-.272-.067-.407-.1-.213-.051-.425-.1-.643-.166-.184-.059-.369-.134-.555-.205-.167-.063-.334-.121-.5-.192-.234-.1-.459-.219-.682-.337-.085-.045-.174-.086-.256-.132v-.313a5.993,5.993,0,0,0,1.861-3.193c.008-.039.013-.079.021-.118.031-.164.062-.327.081-.5A6.1,6.1,0,0,0,38,34V32a5.976,5.976,0,0,0-2-4.459ZM48,40H44V36h4ZM4,46V28h8V45.861c0,.046-.005.092-.005.139Zm53.8,2.454-10.05,1.117C45.654,49.8,42.1,50,40,50H38a21.2,21.2,0,0,1-6.889-1.415l-6.646-2.847A25.191,25.191,0,0,0,16,44V30H32a1.963,1.963,0,0,1,.939.246c.019.011.033.028.051.039a2.045,2.045,0,0,1,.738.728l.007.012a1.946,1.946,0,0,1,.173.407c.009.03.02.059.027.089A1.869,1.869,0,0,1,34,32v2a1.869,1.869,0,0,1-.065.479c-.007.03-.018.059-.027.089a1.946,1.946,0,0,1-.173.407l-.007.012a2.045,2.045,0,0,1-.738.728c-.018.011-.032.028-.051.039A1.963,1.963,0,0,1,32,36H26a2,2,0,0,0,0,4h5.172l.585.585a9.139,9.139,0,0,0,1.049.881l.01.011.076.05a13.532,13.532,0,0,0,3.375,1.749l.1.039c.253.087.5.165.76.237.1.03.207.057.31.084.213.055.423.1.633.148.169.034.333.06.5.086s.313.053.466.07A8.665,8.665,0,0,0,40,44H58a2,2,0,0,1,2,2A2.6,2.6,0,0,1,57.8,48.454Z"/></g><text x="0" y="79" fill="#00000" font-size="5px" font-weight="bold" font-family="'Helvetica Neue', Helvetica, Arial-Unicode, Arial, Sans-serif"></text><text x="0" y="84" fill="#000000" font-size="5px" font-weight="bold" font-family="'Helvetica Neue', Helvetica, Arial-Unicode, Arial, Sans-serif"></text></svg>