<svg xmlns="http://www.w3.org/2000/svg" xmlns:xlink="http://www.w3.org/1999/xlink" version="1.1" x="0px" y="0px" viewBox="0 0 64 80" style="enable-background:new 0 0 64 64;" xml:space="preserve"><g><g><path d="M53.879,41.879L45.757,50H35c-1.103,0-2-0.897-2-2s0.897-2,2-2h5c2.206,0,4-1.794,4-4v-2c0-0.552-0.448-1-1-1H22    c-1.376,0-3.148,0.734-4.121,1.707L5.293,53.293c-0.391,0.391-0.391,1.023,0,1.414l9,9C14.488,63.902,14.744,64,15,64    s0.512-0.098,0.707-0.293L23.414,56H47c0.801,0,1.555-0.312,2.121-0.879l9-9c1.17-1.169,1.17-3.073,0-4.242    C56.989,40.746,55.011,40.746,53.879,41.879z M56.707,44.707l-9,9C47.52,53.893,47.263,54,47,54H23    c-0.265,0-0.52,0.105-0.707,0.293L15,61.586L7.414,54l11.879-11.878C19.88,41.535,21.17,41,22,41h20v1c0,1.103-0.897,2-2,2h-5    c-2.206,0-4,1.794-4,4s1.794,4,4,4h11.171c0.265,0,0.519-0.105,0.707-0.293l8.415-8.415c0.377-0.377,1.036-0.377,1.414,0    C57.097,43.683,57.097,44.317,56.707,44.707z"/><path d="M42,16h-2c-0.552,0-1,0.448-1,1s0.448,1,1,1h2c0.552,0,1-0.448,1-1S42.552,16,42,16z"/><path d="M58.543,11.161l-17-11c-0.331-0.214-0.756-0.214-1.087,0l-17,11C23.172,11.345,23,11.661,23,12v5c0,0.552,0.448,1,1,1h3    v11h-1c-0.552,0-1,0.448-1,1v4c0,0.552,0.448,1,1,1h30c0.552,0,1-0.448,1-1v-4c0-0.552-0.448-1-1-1h-1V18h3c0.552,0,1-0.448,1-1    v-5C59,11.661,58.828,11.345,58.543,11.161z M55,33H27v-2h28V33z M43,29h-4v-8h4V29z M45,29v-9c0-0.552-0.448-1-1-1h-6    c-0.552,0-1,0.448-1,1v9h-8V14.554l12-7.52l12,7.52V29H45z M57,16h-2v-2c0-0.344-0.177-0.665-0.469-0.847l-13-8.146    c-0.324-0.204-0.737-0.204-1.062,0l-13,8.146C27.177,13.335,27,13.656,27,14v2h-2v-3.456L41,2.191l16,10.353V16z"/><path d="M35,20h-4c-0.552,0-1,0.448-1,1v4c0,0.552,0.448,1,1,1h4c0.552,0,1-0.448,1-1v-4C36,20.448,35.552,20,35,20z M34,24h-2v-2    h2V24z"/><path d="M51,20h-4c-0.552,0-1,0.448-1,1v4c0,0.552,0.448,1,1,1h4c0.552,0,1-0.448,1-1v-4C52,20.448,51.552,20,51,20z M50,24h-2v-2    h2V24z"/></g></g><text x="0" y="79" fill="#000000" font-size="5px" font-weight="bold" font-family="'Helvetica Neue', Helvetica, Arial-Unicode, Arial, Sans-serif"></text><text x="0" y="84" fill="#000000" font-size="5px" font-weight="bold" font-family="'Helvetica Neue', Helvetica, Arial-Unicode, Arial, Sans-serif"></text></svg>